<?xml version="1.0" encoding="UTF-8" standalone="no"?>
<svg
   xmlns:dc="http://purl.org/dc/elements/1.1/"
   xmlns:cc="http://creativecommons.org/ns#"
   xmlns:rdf="http://www.w3.org/1999/02/22-rdf-syntax-ns#"
   xmlns:svg="http://www.w3.org/2000/svg"
   xmlns="http://www.w3.org/2000/svg"
   xmlns:sodipodi="http://sodipodi.sourceforge.net/DTD/sodipodi-0.dtd"
   xmlns:inkscape="http://www.inkscape.org/namespaces/inkscape"
   inkscape:export-ydpi="1000"
   inkscape:export-xdpi="1000"
   inkscape:export-filename="C:\Users\Rylei\Documents\ResearchKen\MATLABCode\LevelSetModel\FiguresInPaper\hires versions\text863.png"
   sodipodi:docname="pond evolution example.svg"
   inkscape:version="1.0 (4035a4fb49, 2020-05-01)"
   id="svg8"
   version="1.1"
   viewBox="0 0 210 297"
   height="297mm"
   width="210mm">
  <defs
     id="defs2">
    <rect
       x="-454.025"
       y="1.8520837"
       width="402.69583"
       height="89.958333"
       id="rect840" />
  </defs>
  <sodipodi:namedview
     inkscape:window-maximized="1"
     inkscape:window-y="1609"
     inkscape:window-x="-11"
     inkscape:window-height="1106"
     inkscape:window-width="1920"
     showgrid="false"
     inkscape:document-rotation="0"
     inkscape:current-layer="g872"
     inkscape:document-units="mm"
     inkscape:cy="-57.190039"
     inkscape:cx="-1252.6215"
     inkscape:zoom="0.70710678"
     inkscape:pageshadow="2"
     inkscape:pageopacity="0.0"
     borderopacity="1.0"
     bordercolor="#666666"
     pagecolor="#ffffff"
     id="base" />
  <metadata
     id="metadata5">
    <rdf:RDF>
      <cc:Work
         rdf:about="">
        <dc:format>image/svg+xml</dc:format>
        <dc:type
           rdf:resource="http://purl.org/dc/dcmitype/StillImage" />
        <dc:title />
      </cc:Work>
    </rdf:RDF>
  </metadata>
  <g
     id="layer1"
     inkscape:groupmode="layer"
     inkscape:label="Layer 1">
    <g
       transform="translate(-12.7,-36.247917)"
       id="g872">
      <rect
         y="-80.495407"
         x="-465.12445"
         height="233.48665"
         width="443.02597"
         id="rect841"
         style="fill:#ffffff;stroke:#000000;stroke-width:0.264583" />
      <g
         id="g847"
         transform="translate(-1.3229167,61.421131)"
         inkscape:export-xdpi="1000"
         inkscape:export-ydpi="1000">
        <path
           style="fill:#fdfdfd;stroke-width:0.169333"
           d="m -417.20105,-15.874999 v -36.660668 h 169.24866 169.24865 v 36.660668 36.660667 h -169.24865 -169.24866 z m 309.16678,22.2332567 0.0488,-1.4734083 0.9672,-0.050592 0.9672,-0.05059 0.0487,-1.5663333 0.0487,-1.5663334 h -1.01771 -1.01771 l -0.047,-2.4115404 -0.047,-2.4115387 -0.49213,-0.086128 c -0.45245,-0.079179 -0.46862,-0.1056234 -0.20051,-0.3277938 1.08856,-0.9020336 1.00711,-2.7940661 -0.15979,-3.7119476 l -0.43586,-0.3428509 0.64414,-0.0531 c 0.63866,-0.052649 0.64459,-0.059873 0.69542,-0.8492507 l 0.0513,-0.7961495 0.96472,-0.050517 0.96473,-0.050517 0.045,-4.6990001 0.045,-4.699 h 2.96065 2.96066 v 0.846667 0.846666 h 4.064001 4.064 v -0.846666 -0.846667 h 0.931333 0.931333 v -2.032 -2.032 h 1.016 1.016 v -1.515151 -1.51515 l 0.889,-0.05118 0.889,-0.05118 0.08467,-1.524 0.08467,-1.524 0.880076,-0.05087 0.880059,-0.05087 0.05127,-0.795794 0.05126,-0.795794 1.075284,-0.08467 1.075283,-0.08467 V -32.385 -33.824333 l -1.075283,-0.08467 -1.075284,-0.08467 -0.04868,-1.566333 -0.0487,-1.566333 h -1.856299 -1.856317 v -0.762 -0.762 h -3.03872 -3.03872 l -0.05161,-0.804334 -0.05161,-0.804333 h -3.979333 -3.979333 l -0.0847,0.762 -0.0847,0.762 -1.81087,0.04797 -1.81088,0.04797 -0.0518,0.714034 -0.0518,0.714034 -0.96434,0.05051 -0.96432,0.0505 -0.0517,0.711495 -0.0517,0.711495 -1.73567,0.04826 -1.73566,0.04826 v 0.840742 0.840743 h -3.97934 -3.97933 v -0.846667 -0.846666 h -0.93133 -0.93134 v -0.762 -0.762 h -2.032 -2.032 v 0.762 0.762 h -2.032 -2.032 v 0.846666 0.846667 h -2.87866 -2.87867 v 0.669597 0.669596 l -1.143,0.05007 -1.143,0.05007 -0.0516,0.804334 -0.0516,0.804333 h -1.93806 -1.93805 v 0.837817 0.837818 l -0.889,0.05118 -0.889,0.05118 -0.0521,0.627174 -0.0521,0.627173 -1.04858,0.05016 -1.04858,0.05016 -0.047,2.413 -0.047,2.413 h -0.92669 -0.92668 v 0.762 0.762 h 0.93133 0.93134 v 0.762 0.762 h 1.10066 1.10067 v 0.508 0.508 h 2.87867 2.87866 v 0.846667 0.846666 h 0.94639 0.94639 l -0.43189,0.513258 c -0.52073,0.618863 -0.80245,1.551234 -0.66952,2.215852 0.0881,0.440331 0.0534,0.488224 -0.35345,0.488224 h -0.45111 l 0.0489,1.481667 0.0489,1.481666 1.143,0.05007 1.143,0.05007 v 1.6009295 1.6009299 h 0.93133 0.93134 v 0.6773333 0.6773334 h 1.016 1.016 v 0.8466666 0.8466667 h 2.95405 2.95405 l 0.0516,-0.8043333 c 0.051,-0.7940362 0.0596,-0.8049989 0.67643,-0.8562815 0.34365,-0.028572 0.8542,0.066678 1.13459,0.2116667 1.1973,0.6191521 2.81002,0.1358291 3.35413,-1.005227 l 0.28318,-0.5938249 h 3.27064 3.27064 v 0.6773333 c 0,0.3725333 0.0668,0.6773334 0.14854,0.6773334 0.0817,0 0.1113,0.3302728 0.0658,0.7339397 -0.0874,0.77565 0.19609,1.5441186 0.73335,1.9877262 0.26736,0.2207649 0.24271,0.2489911 -0.28517,0.3263341 l -0.57785,0.084667 -0.045,4.6990001 -0.045,4.6990001 h 0.93401 0.93401 v 0.85259 0.8525916 l 1.73566,-0.048258 1.73567,-0.048257 z m -19.49391,-17.3508137 c -0.0621,-0.06209 -0.11289,-0.404987 -0.11289,-0.762 v -0.64911 h -1.86267 -1.86266 v -0.767314 c 0,-0.49743 -0.0825,-0.79896 -0.23446,-0.857287 -0.15592,-0.05983 -0.23446,-0.370037 -0.23446,-0.926018 0,-0.5993 0.0664,-0.836048 0.23446,-0.836048 0.18235,0 0.23446,-0.338667 0.23446,-1.524 v -1.524 h 0.93133 c 0.92192,0 0.93133,-0.0051 0.93133,-0.508 0,-0.502869 0.009,-0.508 0.93134,-0.508 h 0.93133 v -0.762 -0.762 h 1.10067 1.10066 v -0.75355 -0.753549 l 0.96143,-0.05078 0.9614,-0.05078 0.0122,-0.762 0.0122,-0.762 1.94733,-0.08467 1.94733,-0.08467 0.0526,-0.635 0.0525,-0.635 h 2.01156 2.01156 l 0.0525,0.635 0.0526,0.635 0.97366,0.05078 0.97367,0.05078 v 0.838215 0.838217 h 0.93133 0.93134 v 2.032 2.032 h -0.93134 -0.93133 v 0.846667 0.846666 h -1.016 -1.016 v 0.677334 0.677333 h -0.92248 -0.92249 l -0.0512,0.889 -0.0512,0.889 -1.98019,0.04763 -1.9802,0.04763 -0.0518,0.714375 -0.0518,0.714375 -1.98967,0.04771 -1.98967,0.04771 v 0.756628 0.756625 h -0.98777 c -0.54329,0 -1.03859,-0.0508 -1.10066,-0.11289 z m -143.88025,8.282961 c 0.78894,-0.3963822 1.35804,-1.278277 1.35804,-2.1044866 v -0.6576653 l 1.98966,0.047706 c 1.9178,0.045984 1.99162,0.06147 2.04378,0.428708 0.0534,0.3763129 0.0863,0.381 2.667,0.381 h 2.61289 v -0.4233333 c 0,-0.4045187 0.0452,-0.4233334 1.016,-0.4233334 h 1.016 v -2.9438583 -2.9438581 l 0.43142,-0.282675 c 0.61224,-0.401157 1.09121,-1.263547 1.09195,-1.966075 3.3e-4,-0.330623 0.0717,-0.673523 0.15865,-0.762 0.0869,-0.08848 0.18216,-0.465667 0.21166,-0.8382 l 0.0537,-0.677333 3.683,-0.04564 3.683,-0.04563 v 0.765302 0.765302 h 1.60867 1.60866 v -0.762 -0.762 h 1.08994 1.08994 l 0.0531,-0.550334 c 0.0517,-0.536673 0.0751,-0.551603 0.94206,-0.601516 l 0.889,-0.05118 V -18.677849 -20.193 h 0.67734 0.67733 v -1.26155 -1.261548 l 0.97367,-0.05079 0.97366,-0.05078 0.0517,-0.71183 0.0517,-0.711829 1.04897,-0.05017 1.04899,-0.05017 0.0463,-2.921 0.0463,-2.921 h -1.09493 -1.09493 l -0.0521,-0.719667 -0.0521,-0.719667 -1.60866,-0.08467 -1.60867,-0.08467 -0.0521,-0.719667 -0.0521,-0.719667 h -2.9536 -2.95359 v -0.596861 -0.596861 l -2.75167,0.04653 -2.75166,0.04653 v 0.508 c 0,0.492606 -0.0282,0.510565 -0.93134,0.592666 l -0.93133,0.08467 -0.0521,0.719667 -0.0521,0.719666 h -1.59893 -1.59893 v 0.762 0.762001 h -1.016 -1.016 v 0.762 0.762 h -1.69333 -1.69334 v 0.571 0.571002 l -2.96333,0.0032 -2.96333,0.0032 v -0.574232 c 0,-0.56769 -0.009,-0.574239 -0.762,-0.574239 h -0.762 v -0.762 -0.762 h -2.87867 -2.87867 v 0.7577 0.757699 l -2.667,0.04663 -2.667,0.04663 -0.0525,0.542185 c -0.0516,0.533482 -0.0679,0.542995 -1.016,0.592667 l -0.96355,0.05048 -0.052,0.625353 c -0.0488,0.587558 -0.0898,0.628494 -0.67733,0.677333 -0.61752,0.05133 -0.62641,0.06259 -0.71002,0.898647 l -0.0847,0.846667 -1.81087,0.04797 -1.81087,0.04797 -0.0518,0.714033 -0.0518,0.714035 -1.04819,0.05015 c -1.04359,0.04993 -1.04841,0.05253 -1.10066,0.592667 -0.046,0.475217 -0.12075,0.549099 -0.60282,0.595579 l -0.55033,0.05306 v 2.190604 2.190604 h 0.59267 c 0.56444,0 0.59266,0.02822 0.59266,0.592667 v 0.592667 h 2.96334 2.96333 v 0.762 0.762 h 3.72533 3.72534 v -0.762 -0.762 h 0.67733 c 0.66121,0 0.67733,-0.01411 0.67733,-0.592667 V -17.145 h 1.016 1.016 v -0.677333 -0.677333 h 0.93134 0.93133 V -19.346333 -20.193 h 0.93133 0.93134 v -0.677333 -0.677333 h 3.72533 3.72533 v 0.677333 0.677333 h 0.762 0.762 v 1.524 1.524 h 0.93134 c 0.88219,0 0.93133,0.02249 0.93133,0.426182 0,0.273685 -0.25752,0.6881 -0.71967,1.158152 -1.06523,1.083439 -1.143,1.217107 -1.143,1.964519 v 0.684481 h -0.75272 -0.75272 l -0.0516,0.804333 -0.0516,0.804334 -1.86267,0.01661 -1.86267,0.01661 v 0.491393 c 0,0.484512 -0.0148,0.492102 -1.05833,0.541809 l -1.05833,0.05041 v 0.7539208 0.7539194 h -0.762 -0.762 v 0.6612196 0.6612213 l -0.67002,-0.089869 c -0.41934,-0.056246 -0.92744,0.01314 -1.35809,0.1854471 -0.55073,0.220345 -1.32962,0.2753021 -3.90199,0.2753021 h -3.2139 v 2.032 2.0320001 h 2.70048 2.70048 l 0.0545,-0.889 0.0545,-0.889 0.22011,0.5076901 c 0.66536,1.5346765 2.20555,2.1721725 3.57983,1.4817141 z m 70.61537,-0.4048388 v -0.7014328 l 1.82742,0.1156343 c 1.732,0.1095943 1.85803,0.095047 2.413,-0.2785516 0.32208,-0.2168009 0.73797,-0.6360567 0.92424,-0.9316771 l 0.33867,-0.5374928 3.175,-0.00652 3.175,-0.00653 v 0.8466667 0.8466667 h 2.032 2.032 v -0.8466667 -0.8466667 h 0.67733 0.67733 v -1.524 -1.524 h 0.93134 0.93133 l 0.002,-3.0056672 c 0,-1.653117 0.0495,-3.405717 0.10826,-3.894667 l 0.10678,-0.889 h 3.95575 3.95574 v 0.677334 0.677333 h 2.032 2.032 v -0.677333 -0.677334 h 1.016 1.016 V -16.891 -17.483666 h 0.93133 0.93134 v -1.515551 -1.515548 l 0.97366,-0.05079 0.97367,-0.05078 0.0137,-1.608667 0.0137,-1.608666 1.08697,-0.01835 1.08697,-0.01835 0.0487,-1.547984 0.0487,-1.547986 h 0.92497 0.92498 V -27.643666 -28.321 h 0.67733 0.67734 v -1.524 -1.524 h -0.67734 -0.67733 v -1.603454 -1.603455 l -2.06167,-0.04755 -2.06168,-0.04754 -0.0127,-0.742141 -0.0127,-0.74214 -2.82226,0.03258 c -2.42084,0.02794 -2.84362,-0.0056 -2.97229,-0.235491 -0.1291,-0.230696 -0.69645,-0.273419 -4.06946,-0.306437 -3.65336,-0.03576 -3.92485,-0.01763 -3.99926,0.26712 -0.0718,0.274955 -0.28003,0.302445 -2.08294,0.275046 l -2.00312,-0.03044 -0.0516,0.783288 -0.0516,0.783287 h -0.92205 -0.92206 v 0.762 0.762 h -1.60866 -1.60867 v 0.846666 0.846667 h -1.10067 -1.10066 v 0.687783 0.687785 l -1.905,-0.07627 -1.905,-0.07626 -0.008,-0.569187 -0.008,-0.569185 -1.05024,-0.05041 -1.05022,-0.05041 v -0.829739 -0.829737 l -0.889,-0.05118 -0.889,-0.05118 -0.0521,-0.719667 -0.0521,-0.719666 h -1.09093 -1.09093 v 0.758002 0.758 l -2.921,0.04633 -2.921,0.04633 -0.0277,0.592667 c -0.0152,0.325967 -0.0343,0.687917 -0.0423,0.804333 -0.011,0.160715 -0.72791,0.211667 -2.97791,0.211667 h -2.96333 v 0.677333 0.677334 h -1.016 -1.016 v 0.846667 0.846666 h -0.93134 -0.93133 v 0.672121 0.672122 l -2.07433,0.04754 -2.07434,0.04755 -0.0488,1.47341 -0.0488,1.473408 -0.9672,0.05059 -0.9672,0.05059 v 3.132666 3.132667 l 1.98967,0.04771 1.98967,0.04771 v 0.587294 0.587292 h 2.032 2.032 v 0.677334 0.677333 h 0.96991 0.96992 l -0.65229,0.537669 c -1.49413,1.231592 -1.45418,3.13234 0.0873,4.152424 l 0.64455,0.4265389 0.0486,1.4633516 0.0487,1.4633499 0.889,0.051183 0.889,0.051183 v 1.5151506 1.5151507 h 0.93134 0.93133 v 0.5644439 c 0,0.3104456 0.0508,0.6152456 0.1129,0.6773334 0.0621,0.062089 1.47177,0.1128894 3.13266,0.1128894 h 3.01977 v -0.7014346 z m -3.97959,-5.5642985 c -0.0604,-0.097795 -0.0851,-0.4583769 -0.0548,-0.8012938 l 0.0551,-0.6234839 -1.10066,-0.0071 -1.10067,-0.0071 -0.0516,-0.804333 c -0.0362,-0.564714 -0.12451,-0.804334 -0.29634,-0.804334 -0.16721,0 -0.24472,-0.189423 -0.24472,-0.598105 0,-0.819594 -0.39221,-1.688884 -0.91719,-2.032866 -0.66006,-0.432496 -0.53316,-0.586362 0.48363,-0.586362 h 0.92112 l 0.0526,-0.635 0.0526,-0.635 1.09531,-0.08467 c 1.08384,-0.08378 1.09539,-0.09 1.10067,-0.592667 0.005,-0.491781 0.0351,-0.510702 0.93669,-0.592666 l 0.93133,-0.08467 0.0526,-0.635 0.0525,-0.635 h 1.00579 1.00578 V -19.685 -20.531666 h 0.93133 0.93133 v -0.75392 -0.753921 l 1.05833,-0.05041 1.05834,-0.05041 0.0847,-0.846667 0.0847,-0.846666 2.83633,-0.04643 c 2.20364,-0.03607 2.8394,0.0017 2.85007,0.169333 0.008,0.118669 0.0266,0.520561 0.0423,0.893095 l 0.0286,0.677333 0.97367,0.05078 0.97367,0.05078 v 0.753548 0.753551 h 1.10066 1.10067 v 2.116666 2.116667 h -1.10067 -1.10066 v 0.668884 0.668882 l -0.97367,0.05078 -0.97367,0.05078 -0.012,0.762 -0.012,0.762 -0.91928,0.08467 -0.91929,0.08467 -0.0517,0.711495 -0.0517,0.711494 -0.96431,0.05051 -0.96434,0.0505 -0.0847,0.762 -0.0847,0.762 -1.94734,0.02543 -1.94733,0.02543 -0.0847,0.7365734 -0.0847,0.7365746 -2.82384,0.04637 c -1.83864,0.030194 -2.86219,-0.015663 -2.93375,-0.1314365 z m -90.02466,3.9136406 c 0.13955,-0.088428 0.1637,-0.1863886 0.0615,-0.2495432 -0.0925,-0.057182 -0.26239,0.0095 -0.37748,0.1481667 -0.2285,0.275319 -0.0493,0.3328145 0.31596,0.1013765 z m -99.54374,-7.2999073 v -1.524 h 0.92248 0.92249 l 0.0512,-0.88101 0.0512,-0.881011 0.59267,-0.008 0.59266,-0.008 0.0847,-1.354666 0.0847,-1.354667 0.87928,-0.05085 0.87929,-0.05084 0.0521,-0.626488 0.052,-0.626483 1.10067,-0.08467 1.10067,-0.08467 V -20.785666 -21.971 l -1.10067,-0.08467 -1.10067,-0.08467 -0.0487,-1.566333 -0.0487,-1.566334 h -2.53365 -2.53364 v -0.846666 -0.846667 h -5.75733 -5.75734 v 0.846667 0.846666 h -0.67733 -0.67733 v 0.762 0.762 h -0.93134 -0.93133 v 0.841292 0.841294 l -1.98967,0.04771 c -1.86087,0.04462 -1.98966,0.06963 -1.98966,0.386375 0,0.275951 -0.14111,0.354345 -0.762,0.423333 l -0.762,0.08467 -0.0121,0.762 -0.012,0.762 -0.91928,0.08467 -0.91929,0.08467 -0.0488,1.473024 -0.0488,1.473023 0.97108,0.05098 0.97108,0.05098 0.009,1.354667 0.009,1.354667 0.80433,0.05161 0.80433,0.05161 v 0.668056 0.668055 h 0.93134 0.93133 v 0.846667 0.846667 h 8.382 8.382 z m 41.48666,-0.169334 v -0.846666 h 0.67734 c 0.6096,0 0.67733,-0.04233 0.67733,-0.423334 0,-0.400243 0.0508,-0.423333 0.93133,-0.423333 h 0.93134 v -0.846667 -0.846666 h 1.016 1.016 V -16.383 -17.145 h 1.016 1.016 v -0.846666 -0.846667 h 3.72533 3.72533 v 0.846667 0.846666 h 0.59267 0.59266 v 1.608667 1.608667 h 1.016 1.016 v 1.275212 1.275212 l 2.06168,-0.04754 2.06167,-0.04755 0.0127,-0.762 0.0127,-0.762 3.683,-0.04564 3.683,-0.04563 v 0.849968 0.849969 h 1.59939 1.59939 l 0.0516,-0.804333 0.0516,-0.804334 0.87834,-0.05081 c 0.75718,-0.0438 0.88564,-0.102193 0.93133,-0.423334 0.0462,-0.325082 0.18238,-0.383301 1.069,-0.457186 l 1.016,-0.08467 0.0226,-1.524 0.0226,-1.524 0.57009,-0.08467 0.57009,-0.08467 0.0496,-1.219776 0.0496,-1.219774 1.05107,-0.05023 1.05107,-0.05022 0.0513,-0.795794 0.0513,-0.795794 0.88007,-0.05087 0.88006,-0.05087 0.0463,-2.921 0.0463,-2.921 h -0.93533 -0.93533 v -0.67141 -0.671408 l -1.73567,-0.04826 -1.73566,-0.04826 v -0.762 -0.762 l -3.09034,-0.04615 -3.09033,-0.04615 v -0.50418 -0.50418 h -2.52875 -2.52876 l -0.0536,0.465667 c -0.0507,0.440239 -0.10625,0.468425 -1.0183,0.516184 l -0.96472,0.05052 -0.0513,0.796149 -0.0513,0.79615 -1.73566,0.04826 -1.73567,0.04826 v 0.671408 0.67141 h -0.93133 -0.93134 v 0.846667 0.846667 h -1.60866 -1.60867 v 0.4953 0.4953 h -3.14312 -3.14312 l 0.0528,-0.452967 c 0.0481,-0.412428 -0.004,-0.457671 -0.58221,-0.505523 l -0.635,-0.05255 v -0.83646 -0.836444 h -2.96334 -2.96333 v 0.842368 0.842365 l -2.667,0.04663 -2.667,0.04663 v 0.423334 c 0,0.389979 -0.0734,0.430003 -0.93133,0.508 l -0.93134,0.08467 -0.0847,0.846667 -0.0847,0.846667 -0.67733,0.01011 c -0.67232,0.01002 -0.67772,0.01536 -0.72941,0.719667 l -0.0521,0.709557 h -1.92832 -1.92831 l -0.0516,0.804333 -0.0516,0.804334 -0.889,0.05118 c -0.81637,0.047 -0.889,0.08504 -0.889,0.465667 0,0.378352 -0.0664,0.414484 -0.762,0.414484 h -0.762 v 2.455333 2.455334 h 0.762 c 0.69991,0 0.762,0.03449 0.762,0.423333 v 0.423334 h 2.87867 2.87867 v 0.846666 0.846667 h 3.72533 3.72533 z m -19.78045,-5.174242 c 1.1076,-0.627125 1.66179,-1.039365 1.66179,-1.236134 0,-0.162373 0.0902,-0.385394 0.20037,-0.495601 0.24674,-0.246739 0.32786,-0.175919 -1.30104,-1.135927 -2.28701,-1.347878 -2.61574,-1.489641 -2.90246,-1.251685 -0.23897,0.198333 -0.23093,0.454355 0.0433,1.377256 0.0825,0.277612 -0.23421,0.296333 -5.01266,0.296333 h -5.10068 l 0.0516,0.804333 0.0516,0.804334 4.91913,0.04484 4.91913,0.04484 v 0.549119 c 0,0.757237 0.17345,1.139207 0.51731,1.139207 0.15997,0 1.03866,-0.42341 1.95264,-0.940909 z m 76.2,-2.032 c 1.10759,-0.627125 1.66178,-1.039365 1.66178,-1.236134 0,-0.162373 0.0902,-0.385394 0.20038,-0.495601 0.24674,-0.246739 0.32785,-0.175919 -1.30105,-1.135927 -2.28701,-1.347878 -2.61573,-1.489641 -2.90245,-1.251685 -0.23898,0.198333 -0.23094,0.454355 0.0432,1.377256 0.0825,0.277612 -0.2342,0.296333 -5.01265,0.296333 h -5.10069 l 0.0516,0.804333 0.0516,0.804334 4.91914,0.04484 4.91913,0.04484 v 0.549119 c 0,0.757236 0.17345,1.139207 0.5173,1.139207 0.15998,0 1.03867,-0.42341 1.95265,-0.940909 z m 71.96666,-1.185334 c 1.10759,-0.627124 1.66178,-1.039364 1.66178,-1.236133 0,-0.162374 0.0902,-0.385394 0.20038,-0.495602 0.24675,-0.246739 0.32786,-0.175918 -1.30104,-1.135926 -2.28702,-1.347879 -2.61575,-1.489641 -2.90246,-1.251685 -0.23898,0.198333 -0.23094,0.454355 0.0433,1.377255 0.0825,0.277612 -0.23421,0.296334 -5.01266,0.296334 h -5.10069 l 0.0516,0.804333 0.0516,0.804333 4.91914,0.04484 4.91913,0.04484 v 0.549119 c 0,0.757237 0.17345,1.139207 0.5173,1.139207 0.15998,0 1.03867,-0.423409 1.95265,-0.940909 z m 75.86132,-2.032 c 1.1076,-0.627124 1.66179,-1.039364 1.66179,-1.236133 0,-0.162374 0.0902,-0.385394 0.20037,-0.495602 0.24676,-0.246739 0.32787,-0.175918 -1.30104,-1.135927 -2.28701,-1.347878 -2.61574,-1.48964 -2.90245,-1.251684 -0.23898,0.198333 -0.23094,0.454355 0.0432,1.377255 0.0825,0.277612 -0.2342,0.296334 -5.01265,0.296334 h -5.10069 l 0.0516,0.804333 0.0516,0.804333 4.91914,0.04484 4.91913,0.04484 v 0.549119 c 0,0.757237 0.17345,1.139207 0.51729,1.139207 0.15999,0 1.03868,-0.423409 1.95265,-0.940909 z m -246.56357,-17.560992 c 0.31646,-0.210779 0.71727,-0.672715 0.89069,-1.026523 0.28308,-0.577543 0.29112,-0.706835 0.0786,-1.265073 -0.2984,-0.784004 -1.00535,-1.264188 -2.27659,-1.546322 -1.4899,-0.330663 -1.92737,-0.602107 -1.92737,-1.195905 0,-0.612724 0.47366,-0.904721 1.46758,-0.904721 0.82849,0 1.58042,0.431539 1.58042,0.907015 0,0.25907 0.11486,0.334763 0.508,0.334763 0.42125,0 0.508,-0.06839 0.508,-0.400497 0,-0.541323 -0.61154,-1.282627 -1.29299,-1.567356 -1.1799,-0.492994 -2.95921,-0.154648 -3.53887,0.672939 -0.13648,0.194848 -0.24814,0.672321 -0.24814,1.06105 0,0.591439 0.0937,0.789071 0.5743,1.211029 0.34122,0.299593 0.94257,0.590356 1.48167,0.71641 1.92424,0.449933 2.50545,0.914834 2.18789,1.750073 -0.31828,0.837146 -2.24278,1.00533 -3.03699,0.265407 -0.19586,-0.182469 -0.40339,-0.520152 -0.46118,-0.750408 -0.10719,-0.427069 -0.47006,-0.534398 -0.89561,-0.264896 -0.51623,0.326933 0.29567,1.736038 1.23622,2.145557 0.86975,0.378688 2.49145,0.305636 3.16432,-0.142542 z m 4.93185,0.109342 c 0.49151,-0.25417 0.54478,-0.253192 0.73985,0.01358 0.25955,0.354958 1.03425,0.2861 0.92674,-0.08237 -0.0401,-0.137489 -0.11632,-1.152269 -0.16934,-2.255066 -0.0881,-1.833092 -0.13011,-2.03235 -0.48947,-2.322927 -0.48866,-0.395118 -1.37019,-0.570207 -2.14193,-0.425427 -0.70861,0.132934 -1.61366,0.854073 -1.61366,1.285749 0,0.369245 0.70977,0.661068 0.81802,0.336328 0.24514,-0.735432 1.07613,-1.020762 1.9762,-0.678554 0.35477,0.134884 0.43468,0.263707 0.39203,0.632027 -0.05,0.431392 -0.1313,0.475301 -1.20521,0.650631 -1.26222,0.206075 -2.00222,0.64216 -2.15937,1.272525 -0.1358,0.544717 0.13009,1.286407 0.57217,1.596048 0.47368,0.331781 1.69133,0.320122 2.35397,-0.02254 z m -1.52014,-0.577906 c -0.2473,-0.0995 -0.381,-0.296483 -0.381,-0.561344 0,-0.52375 0.26064,-0.730357 1.10067,-0.872491 0.37253,-0.06303 0.81068,-0.151187 0.97366,-0.195897 0.23549,-0.0646 0.29634,0.02536 0.29634,0.438119 0,0.543848 -0.50054,1.196745 -0.91749,1.196745 -0.13208,0 -0.34163,0.03334 -0.46566,0.07408 -0.12404,0.04074 -0.39697,0.0051 -0.60652,-0.07921 z m 7.20132,0.588196 c 0.34063,-0.23858 0.37635,-0.23858 0.37635,0 0,0.168287 0.15307,0.263602 0.42333,0.263602 h 0.42333 v -3.651914 -3.651914 l -0.46566,0.05358 c -0.45011,0.05179 -0.46733,0.09121 -0.51536,1.179932 l -0.0497,1.126351 -0.51003,-0.254436 c -0.57515,-0.286925 -1.39019,-0.198752 -1.97972,0.214172 -0.5924,0.414934 -0.9369,1.251405 -0.9369,2.274895 0,1.623047 0.86464,2.709333 2.15652,2.709333 0.38582,0 0.87084,-0.118621 1.07783,-0.263602 z m -1.79865,-1.011382 c -1.03991,-1.322027 -0.24725,-3.61592 1.09912,-3.180754 1.04206,0.336809 1.39811,2.440172 0.55567,3.282611 -0.46892,0.468919 -1.24332,0.421252 -1.65479,-0.101857 z m 7.21732,1.011382 c 0.34062,-0.23858 0.37634,-0.23858 0.37634,0 0,0.168287 0.15308,0.263602 0.42334,0.263602 h 0.42333 v -3.651914 -3.651914 l -0.46567,0.05358 c -0.45011,0.05179 -0.46732,0.09121 -0.51535,1.179932 l -0.0497,1.126351 -0.51003,-0.254436 c -0.57516,-0.286925 -1.3902,-0.198752 -1.97973,0.214172 -0.5924,0.414934 -0.93689,1.251405 -0.93689,2.274895 0,1.623047 0.86464,2.709333 2.15652,2.709333 0.38582,0 0.87084,-0.118621 1.07783,-0.263602 z m -1.79866,-1.011382 c -1.0399,-1.322027 -0.24724,-3.61592 1.09912,-3.180754 1.04206,0.336809 1.39812,2.440172 0.55568,3.282611 -0.46892,0.468919 -1.24332,0.421252 -1.6548,-0.101857 z m 5.13834,-2.365682 v -3.556001 l -0.46567,-0.05358 -0.46567,-0.05358 v 3.663162 3.663161 l 0.46567,-0.05358 0.46567,-0.05358 z m 4.77544,3.308855 c 0.29816,-0.1818 0.65771,-0.554091 0.799,-0.827313 0.25149,-0.486329 0.24722,-0.498675 -0.20344,-0.587562 -0.36588,-0.07217 -0.54103,0.01085 -0.85361,0.404612 -0.53944,0.679534 -1.53516,0.703453 -2.04977,0.04924 -0.19303,-0.245393 -0.35096,-0.588293 -0.35096,-0.762 0,-0.289077 0.15779,-0.31583 1.86267,-0.31583 1.84242,0 1.86267,-0.0043 1.86267,-0.398065 0,-2.353117 -2.55817,-3.463398 -4.15049,-1.801372 -0.42892,0.447703 -0.50454,0.673002 -0.56095,1.671381 -0.10632,1.881534 0.71442,2.897456 2.34077,2.897456 0.45773,0 0.97847,-0.131989 1.30411,-0.330545 z m -2.65878,-3.107592 c 0,-0.34029 0.63567,-0.946352 1.1201,-1.067937 0.50628,-0.127069 1.22238,0.327791 1.43932,0.914246 0.13625,0.368316 0.11227,0.375761 -1.21021,0.375761 -1.00019,0 -1.34921,-0.05745 -1.34921,-0.22207 z m 8.80534,2.00007 v -1.439333 l 1.143,-9.49e-4 c 1.45391,-0.0012 2.2464,-0.223229 2.76424,-0.77444 0.33891,-0.360762 0.41076,-0.61187 0.41076,-1.435742 0,-1.722451 -0.78731,-2.158688 -3.937,-2.181446 l -1.397,-0.01009 v 3.640667 3.640666 h 0.508 0.508 z m 0,-3.640667 V -46.101 h 1.34237 c 1.24851,0 1.36692,0.0312 1.69334,0.446169 0.19302,0.245393 0.35095,0.578017 0.35095,0.739164 0,0.161147 -0.15793,0.493771 -0.35095,0.739164 -0.32642,0.414968 -0.44483,0.44617 -1.69334,0.44617 h -1.34237 z m 8.89431,4.738664 c 0.69496,-0.429507 1.09635,-1.261332 1.09635,-2.272027 0,-2.076229 -1.51449,-3.242959 -3.31633,-2.554828 -0.83992,0.320766 -1.21281,0.770167 -1.43993,1.735369 -0.31484,1.338004 0.28007,2.867841 1.27112,3.268763 0.6545,0.264774 1.8126,0.17883 2.38879,-0.177277 z m -2.24292,-0.88633 c -0.4463,-0.4854 -0.60327,-1.565687 -0.33803,-2.326347 0.37426,-1.073305 1.62096,-1.278891 2.32531,-0.383455 0.60455,0.768559 0.32484,2.694577 -0.43359,2.985615 -0.55772,0.214017 -1.20974,0.09827 -1.55369,-0.275813 z m 5.20194,-1.397 V -45.085 h -0.508 -0.508 v 2.511778 c 0,1.381478 0.0508,2.562578 0.11289,2.624666 0.0621,0.06209 0.29069,0.112889 0.508,0.112889 h 0.39511 z m 2.20133,0.942357 c 0,-0.925271 0.0708,-1.86842 0.15724,-2.095887 0.21831,-0.574198 1.12294,-0.881561 1.62548,-0.552285 0.46174,0.302547 0.58795,0.909512 0.58795,2.827648 0,1.50218 1.7e-4,1.502833 0.43645,1.502833 h 0.43646 l -0.0555,-2.301351 c -0.0523,-2.169921 -0.0779,-2.319506 -0.44854,-2.61926 -0.64395,-0.520803 -1.45086,-0.586138 -2.22911,-0.180489 -0.5547,0.289127 -0.6798,0.30809 -0.6798,0.103049 0,-0.155145 -0.16196,-0.251282 -0.42333,-0.251282 h -0.42334 v 2.511778 c 0,1.381478 0.0508,2.562578 0.11289,2.624666 0.0621,0.06209 0.29069,0.112889 0.508,0.112889 0.38741,0 0.39511,-0.03278 0.39511,-1.682309 z m 6.46687,1.593663 c 0.15812,-0.158124 -0.0669,-0.933581 -0.26414,-0.910059 -0.58286,0.06953 -0.61473,-0.01916 -0.61473,-1.710628 v -1.693333 h 0.42334 c 0.33866,0 0.42333,-0.08467 0.42333,-0.423334 0,-0.338666 -0.0847,-0.423333 -0.42333,-0.423333 -0.39512,0 -0.42334,-0.05644 -0.42334,-0.846667 0,-0.940839 0.0155,-0.923617 -0.5847,-0.650153 -0.35317,0.160915 -0.4313,0.314292 -0.4313,0.846667 0,0.537264 -0.0588,0.650153 -0.33866,0.650153 -0.23083,0 -0.33867,0.112889 -0.33867,0.354519 0,0.21211 0.13604,0.390096 0.33867,0.443083 0.31249,0.08172 0.33866,0.230974 0.33866,1.931481 0,1.617139 0.0415,1.884407 0.33867,2.181584 0.31193,0.311932 1.33062,0.475596 1.5562,0.25002 z m -61.5018,-0.394845 c 2.0786,-1.114764 2.25451,-3.943227 0.3246,-5.219203 -0.59919,-0.396162 -0.90202,-0.477478 -1.76928,-0.475085 -0.87135,0.0024 -1.16259,0.08345 -1.74141,0.48457 -0.77612,0.53785 -1.38431,1.614298 -1.38431,2.450111 0,0.626936 0.38886,1.642655 0.81079,2.117816 0.79385,0.893995 2.68682,1.217137 3.75961,0.641791 z m 52.8336,-6.216423 c 0,-0.558916 -0.0347,-0.599922 -0.46567,-0.550333 -0.38802,0.04465 -0.47451,0.145345 -0.51873,0.603914 -0.0494,0.51267 -0.0176,0.550333 0.46567,0.550333 0.48178,0 0.51873,-0.04301 0.51873,-0.603914 z"
           id="path855" />
        <path
           style="fill:#98d8e9;stroke-width:0.169333"
           d="m -111.5544,7.0755913 v -0.85259 h -0.93401 -0.93401 l 0.045,-4.6990007 0.045,-4.6989997 0.50292,-0.05718 c 0.2766,-0.03145 0.89773,0.07703 1.38028,0.241053 0.83529,0.283926 0.91445,0.284072 1.65032,0.003 0.42512,-0.162355 0.98508,-0.27083 1.24438,-0.241055 l 0.47143,0.05414 0.047,2.41300003 0.047,2.41300067 h 1.01771 1.01771 l -0.0487,1.566333 -0.0487,1.5663337 -0.9672,0.05059 -0.9672,0.05059 -0.0488,1.473408 -0.0488,1.47341 -1.73567,0.04826 -1.73566,0.04826 v -0.852591 z m -95.3911,-9.6014804 c -0.0621,-0.06209 -0.1129,-0.366887 -0.1129,-0.677333 v -0.564444 h -0.93133 -0.93133 V -5.282817 -6.7979668 l -0.889,-0.05118 -0.889,-0.05118 -0.0847,-1.524001 -0.0847,-1.5239999 0.67734,0.04963 c 0.88879,0.06512 1.75397,-0.3890143 2.27203,-1.1926283 0.56042,-0.869305 0.83032,-0.818164 0.89369,0.169334 l 0.0516,0.804333 1.10067,0.0054 1.10066,0.0054 v 0.7566082 0.756608 h 2.87867 2.87866 l 0.0847,-0.736574 0.0847,-0.7365732 1.94733,-0.02543 1.94733,-0.02543 0.0847,-0.762 0.0847,-0.762 0.96433,-0.05051 0.96432,-0.0505 0.0517,-0.711495 0.0517,-0.711495 0.91929,-0.08467 0.91928,-0.08467 0.012,-0.762 0.012,-0.762 0.97367,-0.05078 0.97367,-0.05078 v -0.66889 -0.668883 h 1.10066 1.10067 v -2.116667 -2.116667 h -1.10067 -1.10066 v -0.75355 -0.753549 l -0.97367,-0.05078 -0.97367,-0.05078 -0.0286,-0.677333 c -0.0157,-0.372533 -0.0348,-0.774426 -0.0423,-0.893094 -0.0107,-0.167632 -0.64643,-0.205405 -2.85007,-0.169334 l -2.83633,0.04643 -0.0847,0.846667 -0.0847,0.846666 -1.05834,0.05041 -1.05833,0.05041 v 0.753921 0.753919 h -0.93133 -0.93134 v 0.846667 0.846667 h -1.00577 -1.00579 l -0.0525,0.635 -0.0526,0.635 -0.93134,0.08467 c -0.90159,0.08196 -0.9315,0.100886 -0.93668,0.592667 -0.005,0.502669 -0.0168,0.508889 -1.10067,0.592667 l -1.09531,0.08467 -0.0526,0.635 -0.0525,0.635 -0.96345,0.02035 c -0.98512,0.02081 -2.30382,0.01867 -3.88444,-0.0063 l -0.88895,-0.01404 v -0.677333 -0.677334 h -2.032 -2.032 v -0.587292 -0.587294 l -1.98967,-0.04771 -1.98966,-0.04771 V -20.701 -23.833666 l 0.96719,-0.05059 0.9672,-0.05059 0.0488,-1.473408 0.0488,-1.47341 2.07433,-0.04755 2.07433,-0.04754 V -27.648879 -28.321 h 0.93134 0.93133 v -0.846666 -0.846667 h 1.016 1.016 V -30.691667 -31.369 h 2.96333 c 2.25,0 2.96684,-0.05095 2.97791,-0.211667 0.008,-0.116416 0.0271,-0.478366 0.0423,-0.804333 l 0.0277,-0.592667 2.921,-0.04633 2.921,-0.04633 v -0.758 -0.758002 h 1.09093 1.09093 l 0.0521,0.719666 0.0521,0.719667 0.889,0.05118 0.889,0.05118 v 0.829737 0.829739 l 1.04111,0.05041 1.04112,0.05041 0.0172,0.653755 c 0.014,0.531348 -0.0704,0.716153 -0.45101,0.987015 -1.40546,1.000356 -1.26895,3.255258 0.25502,4.212204 0.42657,0.267865 0.75646,0.331403 1.45298,0.279849 0.75839,-0.05613 0.9949,-0.160477 1.4932,-0.658767 1.08024,-1.080251 1.0574,-2.602808 -0.0548,-3.651743 l -0.58562,-0.552313 h 0.85872 0.85873 V -30.691667 -31.369 h 1.10066 1.10067 v -0.846667 -0.846666 h 1.60867 1.60866 v -0.762 -0.762 h 0.92206 0.92205 l 0.0516,-0.783287 0.0516,-0.783288 2.00313,0.03044 c 1.8029,0.0274 2.0111,-9.1e-5 2.08293,-0.275046 0.0744,-0.284749 0.3459,-0.302883 3.99926,-0.26712 3.37301,0.03302 3.94036,0.07574 4.06946,0.306437 0.12867,0.229939 0.55145,0.263435 2.97229,0.235491 l 2.82226,-0.03258 0.0127,0.74214 0.0127,0.742141 2.06168,0.04754 2.06167,0.04755 v 1.603455 1.603454 h 0.67733 0.67734 v 1.524 1.524 h -0.67734 -0.67733 v 0.677334 0.677333 h -0.92498 -0.92497 l -0.0487,1.547986 -0.0487,1.547984 -1.08697,0.01835 -1.08697,0.01835 -0.0137,1.608666 -0.0137,1.608667 -0.97367,0.05078 -0.97366,0.05079 v 1.515548 1.515551 h -0.93134 -0.93133 v 0.592667 0.592666 h -1.016 -1.016 v 0.677334 0.677334 h -2.032 -2.032 V -15.621 -16.298334 h -3.9691 -3.96913 l -0.0664,0.635 c -0.0645,0.616317 -0.0673,0.612581 -0.096,-0.127 -0.0551,-1.418955 -1.05036,-2.368434 -2.48268,-2.368434 -1.4899,0 -2.4531,0.963206 -2.4531,2.453101 0,1.473919 0.96434,2.452222 2.41918,2.454218 1.00271,0.0014 1.72422,-0.354939 2.15744,-1.065438 l 0.33054,-0.542112 v 3.175 3.1749992 h -0.93133 -0.93134 v 1.524 V -5.461 h -0.67733 -0.67733 v 0.846667 0.8466659 h -2.032 -2.032 V -4.614334 -5.461 l -3.175,-5.08e-4 -3.175,-5.08e-4 -0.004,-0.7547837 c -0.0105,-1.8596501 -2.06758,-2.9938061 -3.79319,-2.0914051 -1.64506,0.860281 -1.8576,3.0904668 -0.39827,4.1789927 l 0.47041,0.350879 -0.889,0.0054 -0.889,0.0054 v 0.677333 0.677334 h -3.01978 c -1.66088,0 -3.07058,-0.0508 -3.13266,-0.11289 z m -73.77289,-2.4203119 v -2.0252008 l 3.36735,-0.04913 3.36735,-0.04913 -0.47179,0.536983 c -0.49546,0.5639271 -0.84425,1.7796408 -0.84425,2.9426847 v 0.668999 h -2.70933 -2.70933 z m 14.70144,-0.04913 c -0.0521,-0.366842 -0.12697,-0.382763 -2.01486,-0.428457 l -1.96074,-0.04746 -0.27496,-0.5765837 c -0.15122,-0.3171221 -0.50714,-0.7482471 -0.79092,-0.9580541 -0.41811,-0.309125 -0.51596,-0.503887 -0.51596,-1.026959 v -0.645484 h 0.762 0.762 v -0.753923 -0.7539212 l 1.05833,-0.05041 c 1.04351,-0.04971 1.05833,-0.0573 1.05833,-0.54181 v -0.491393 l 1.86267,-0.01661 1.86267,-0.01661 0.0516,-0.804334 0.0516,-0.804333 h 0.75272 0.75272 v -0.762 c 0,-0.4191 0.0572,-0.761758 0.127,-0.76146 0.0699,3.39e-4 0.12893,0.340191 0.13129,0.755322 0.005,0.815189 0.35366,1.424469 1.16159,2.027675 0.34924,0.260745 0.72169,0.34913 1.47121,0.34913 h 1.00358 v 2.9210002 2.9209998 h -1.016 c -0.97084,0 -1.016,0.01882 -1.016,0.423333 v 0.423334 h -2.61289 c -2.58074,0 -2.61355,-0.0047 -2.667,-0.381 z m 134.65055,-0.465665 v -0.8466658 h -1.016 -1.016 v -0.677334 -0.677333 h -0.93134 -0.93133 v -1.60093 -1.6009292 l -1.143,-0.05007 -1.143,-0.05007 -0.0488,-1.4698 -0.0487,-1.469799 0.47208,-0.0542 c 0.36361,-0.04175 0.53982,0.05315 0.76688,0.413015 0.95384,1.511779 3.29333,1.483827 4.16011,-0.0497 0.42191,-0.746469 0.78376,-0.580376 0.84604,0.388346 l 0.0516,0.802811 h 1.84365 1.84365 l 0.0521,0.719667 0.0521,0.719666 1.05833,0.05041 1.05833,0.05041 v -0.764706 -0.764706 l 1.98967,-0.04771 1.98967,-0.04771 0.0518,-0.714375 0.0518,-0.714375 1.9802,-0.04763 1.98019,-0.04763 0.0512,-0.889 0.0512,-0.889 h 0.92249 0.92248 v -0.677318 -0.677334 h 1.016 1.016 v -0.846666 -0.846667 h 0.93133 0.93134 v -2.032 -2.032 h -0.93134 -0.93133 v -0.838217 -0.838215 l -0.97367,-0.05078 -0.97366,-0.05078 -0.0526,-0.635 -0.0525,-0.635 h -2.01156 -2.01156 l -0.0525,0.635 -0.0526,0.635 -1.94733,0.08467 -1.94733,0.08467 -0.0122,0.762 -0.0122,0.762 -0.9614,0.05078 -0.96143,0.05078 v 0.753549 0.75355 h -1.10066 -1.10067 v 0.762 0.762 h -0.93133 c -0.92192,0 -0.93134,0.0051 -0.93134,0.508 0,0.502869 -0.009,0.508 -0.93133,0.508 h -0.93133 v 1.524 c 0,1.393398 -0.0281,1.524 -0.32726,1.524 -0.17998,0 -0.37565,-0.152451 -0.43478,-0.33878 -0.29625,-0.933384 -2.11968,-1.623153 -3.07467,-1.163086 -0.28644,0.137998 -0.87547,0.211307 -1.45496,0.181083 l -0.97367,-0.05079 v -0.838219 -0.838217 h -2.87866 -2.87867 v -0.508 -0.508 h -1.10067 -1.10066 v -0.762 -0.762 h -0.93134 -0.93133 v -0.762 -0.762 h 0.92668 0.92669 l 0.047,-2.413 0.047,-2.413 1.04858,-0.05016 1.04858,-0.05016 0.0521,-0.627173 0.0521,-0.627174 0.889,-0.05118 0.889,-0.05118 V -30.023183 -30.861 h 1.93805 1.93805 l 0.0516,-0.804333 0.0516,-0.804334 1.143,-0.05007 1.143,-0.05007 V -33.239403 -33.909 h 2.87867 2.87866 v -0.846667 -0.846666 h 2.032 2.032 v -0.762 -0.762 h 2.032 2.032 v 0.762 0.762 h 0.93133 0.93134 v 0.846666 0.846667 h 3.97933 3.97933 v -0.840743 -0.840742 l 1.73567,-0.04826 1.73567,-0.04826 0.0517,-0.711495 0.0517,-0.711495 0.96432,-0.0505 0.96422,-0.05051 0.0518,-0.714034 0.0518,-0.714034 1.81088,-0.04797 1.81087,-0.04797 0.0847,-0.762 0.0847,-0.762 h 3.979338 3.979333 l 0.05161,0.804333 0.05161,0.804334 h 3.03872 3.03872 v 0.762 0.762 h 1.856317 1.856299 l 0.0487,1.566333 0.04868,1.566333 1.075284,0.08467 1.075283,0.08467 v 1.439333 1.439333 l -1.075283,0.08467 -1.075284,0.08467 -0.05126,0.795794 -0.05127,0.795794 -0.880059,0.05087 -0.880076,0.05087 -0.08467,1.524 -0.08467,1.524 -0.889,0.05118 -0.889,0.05118 v 1.51515 1.515151 h -1.016 -1.016 v 2.032 2.032 h -0.931333 -0.931333 v 0.846667 0.846666 h -4.064 -4.064006 v -0.846666 -0.846667 h -2.96066 -2.96065 l -0.045,4.699 -0.045,4.6990002 -0.96473,0.05052 -0.96472,0.05052 -0.0513,0.79615 -0.0513,0.796149 h -1.778 c -1.91586,0 -2.39012,0.164924 -2.95548,1.027765 -0.39194,0.5981801 -0.60052,0.5058681 -0.60052,-0.265765 v -0.677333 l -3.25967,-5.08e-4 -3.25966,-5.08e-4 -0.002,-0.831517 c 0,-0.677015 -0.0986,-0.952219 -0.52664,-1.4811419 -0.98374,-1.2155243 -2.40328,-1.3678683 -3.52975,-0.3788093 -1.01314,0.8895372 -1.21626,2.5120132 -0.44506,3.5550972 l 0.34891,0.471926 -0.63263,0.05241 c -0.62606,0.05187 -0.63315,0.06076 -0.68423,0.8567477 l -0.0516,0.804333 h -2.95405 -2.95406 v -0.846666 z m 23.7093,-10.134872 c 0.32451,-0.172447 0.76822,-0.572498 0.98601,-0.889 0.54179,-0.787344 0.46379,-2.300107 -0.15262,-2.959898 -1.66478,-1.781949 -4.38944,-0.764572 -4.3914,1.639729 -0.002,1.325068 1.16428,2.522708 2.45471,2.522708 0.28231,0 0.77879,-0.141093 1.1033,-0.313539 z m -7.56918,-12.237819 c 0.64933,-0.333595 1.28759,-1.033619 1.48339,-1.626942 0.28699,-0.869553 0.0601,-1.666051 -0.68742,-2.413605 -0.87794,-0.877951 -1.85445,-1.0489 -2.95321,-0.517 -2.45801,1.189898 -1.60308,4.746191 1.14124,4.747309 0.35538,1.44e-4 0.81258,-0.08525 1.016,-0.189762 z m -96.76439,17.165692 c -0.21062,-0.268573 -0.20464,-0.274563 0.0639,-0.06393 0.28206,0.221212 0.37177,0.360267 0.23239,0.360267 -0.0351,0 -0.1685,-0.13335 -0.29633,-0.296333 z m -199.11438,-0.719667 v -0.846667 h -0.93133 -0.93134 v -0.668055 -0.668056 l -0.80433,-0.05161 -0.80433,-0.05161 -0.009,-1.354667 -0.009,-1.354667 -0.97108,-0.05098 -0.97108,-0.05098 0.0488,-1.473023 0.0488,-1.473024 0.91929,-0.08467 0.91928,-0.08467 0.012,-0.762 0.0121,-0.762 0.762,-0.08467 c 0.62089,-0.06899 0.762,-0.147382 0.762,-0.423333 0,-0.316745 0.12879,-0.341755 1.98966,-0.386375 l 1.98967,-0.04771 v -0.841276 -0.841292 h 0.93133 0.93134 v -0.762 -0.762 h 0.67733 0.67733 v -0.846665 -0.846667 h 5.75734 5.75733 v 0.846667 0.846665 h 2.53364 2.53365 l 0.0487,1.566334 0.0487,1.566333 1.10067,0.08467 1.10067,0.08467 v 1.185335 1.185332 l -1.10067,0.08467 -1.10067,0.08467 -0.052,0.626488 -0.0521,0.626488 -0.87929,0.05084 -0.87928,0.05085 -0.0847,1.354667 -0.0847,1.354668 -0.59266,0.008 -0.59267,0.008 -0.0512,0.881009 -0.0512,0.88101 h -0.92249 -0.92248 v 1.524 1.524001 h -8.382 -8.382 v -0.846668 z m 50.8,-0.846667 v -0.846666 h -2.87867 -2.87867 v -0.423334 c 0,-0.38884 -0.0621,-0.423333 -0.762,-0.423333 h -0.762 v -2.455334 -2.455333 h 0.762 c 0.69558,0 0.762,-0.03613 0.762,-0.414484 0,-0.380624 0.0726,-0.418665 0.889,-0.465667 l 0.889,-0.05118 0.0516,-0.804334 0.0516,-0.804333 h 1.92831 1.92832 l 0.0521,-0.709564 c 0.0517,-0.70431 0.0571,-0.709639 0.72941,-0.719667 l 0.67733,-0.01011 0.0847,-0.846667 0.0847,-0.846666 0.93134,-0.08467 c 0.85795,-0.078 0.93133,-0.11802 0.93133,-0.508 v -0.423333 l 2.667,-0.04663 2.667,-0.04663 v -0.842369 -0.842368 h 2.96333 2.96334 v 0.836444 0.836446 l 0.635,0.05256 c 0.58285,0.04824 0.63052,0.0908 0.58054,0.518222 l -0.0545,0.465667 1.15512,0.0012 1.15512,0.0012 -0.48408,0.319144 c -0.76637,0.505262 -1.12236,1.182101 -1.12236,2.133957 0,1.489896 0.96321,2.453102 2.4531,2.453102 1.4899,0 2.45311,-0.963206 2.45311,-2.453102 0,-0.951856 -0.35599,-1.628695 -1.12237,-2.133957 l -0.48407,-0.319144 1.143,-0.0012 1.143,-0.0012 v -0.508 -0.508 h 1.60867 1.60866 v -0.846667 -0.846667 h 0.93134 0.93133 v -0.67141 -0.671408 l 1.73567,-0.04826 1.73566,-0.04826 0.0513,-0.796149 0.0513,-0.79615 0.96472,-0.05052 c 0.91205,-0.04776 0.96765,-0.07594 1.0183,-0.516184 l 0.0536,-0.465667 h 2.52876 2.52875 v 0.50418 0.50418 l 3.09033,0.04615 3.09034,0.04615 v 0.762 0.762 l 1.73566,0.04826 1.73567,0.04826 v 0.671408 0.67141 h 0.93533 0.93533 l -0.0463,2.921001 -0.0463,2.921 -0.88007,0.05087 -0.88007,0.05087 -0.0513,0.795794 -0.0513,0.795801 -1.05107,0.05022 -1.05108,0.05023 -0.0496,1.219774 -0.0496,1.219776 -0.57009,0.08467 -0.57009,0.08467 -0.0226,1.524 -0.0226,1.524 -1.016,0.08467 c -0.88662,0.07389 -1.02275,0.132104 -1.069,0.457186 -0.0457,0.321141 -0.17415,0.379531 -0.93134,0.423334 l -0.87833,0.05081 -0.0516,0.804334 -0.0516,0.804333 h -1.59939 -1.59939 v -0.849969 -0.849968 l -3.683,0.04563 -3.683,0.04564 -0.0127,0.762 -0.0127,0.762 -2.06168,0.04755 -2.06167,0.04754 v -1.275212 -1.275212 h -1.016 -1.016 V -15.536333 -17.145 h -0.59266 -0.59267 v -0.846666 -0.846667 h -3.72533 -3.72534 v 0.846667 0.846666 h -1.016 -1.016 v 0.762 0.762001 h -1.016 -1.016 v 0.846666 0.846667 h -0.93133 c -0.88053,0 -0.93133,0.02309 -0.93133,0.423333 0,0.381 -0.0677,0.423334 -0.67734,0.423334 h -0.67733 v 0.846666 0.846667 h -3.72533 -3.72534 v -0.846667 z m 102.86791,-2.669083 c -0.48061,-0.891435 -1.47633,-1.426965 -2.49559,-1.342193 -0.78725,0.06547 -0.80433,0.05663 -0.80433,-0.416247 0,-0.47274 -0.0201,-0.483144 -0.93133,-0.483144 h -0.93134 v -1.524 -1.524 h -0.762 -0.762 v -0.677333 -0.677333 h -3.72533 -3.72533 v 0.677333 0.677333 h -0.93134 -0.93133 v 0.846667 0.846667 h -0.93133 -0.93134 v 0.677333 0.677333 h -1.016 -1.016 v 0.592667 c 0,0.578556 -0.0161,0.592667 -0.67733,0.592667 h -0.67733 v 0.762 0.762 h -3.72534 -3.72533 v -0.762 -0.762 h -2.96333 -2.96334 v -0.592667 c 0,-0.564444 -0.0282,-0.592667 -0.59266,-0.592667 h -0.59267 v -2.190604 -2.190604 l 0.55033,-0.05306 c 0.48207,-0.04648 0.55685,-0.120362 0.60282,-0.595579 0.0523,-0.540136 0.0571,-0.542735 1.10066,-0.592667 l 1.04819,-0.05015 0.0518,-0.714035 0.0518,-0.714033 1.81087,-0.04797 1.81087,-0.04797 0.0847,-0.846667 c 0.0836,-0.836058 0.0925,-0.847319 0.71002,-0.898647 0.58756,-0.04884 0.62849,-0.08977 0.67733,-0.677333 l 0.052,-0.625353 0.96355,-0.05048 c 0.94808,-0.04967 0.96439,-0.05918 1.016,-0.592667 l 0.0525,-0.542185 2.667,-0.04663 2.667,-0.04663 v -0.757699 -0.7577 h 2.87867 2.87867 v 0.762 0.762 h 0.762 c 0.75796,0 0.762,0.0031 0.762,0.592666 v 0.592667 l 1.05833,0.0012 1.05833,0.0012 -0.48407,0.319144 c -1.60526,1.05833 -1.47608,3.433797 0.23345,4.292695 1.44181,0.724389 3.23488,-0.0055 3.73482,-1.520371 0.28862,-0.874551 0.0604,-1.665733 -0.69964,-2.425812 l -0.66789,-0.668027 h 0.84667 0.84666 v -0.592699 -0.592666 h 1.69334 1.69333 v -0.762 -0.762 h 1.016 1.016 v -0.762001 -0.762 h 1.59893 1.59893 l 0.0521,-0.719666 0.0521,-0.719667 0.93133,-0.08467 c 0.90311,-0.0821 0.93134,-0.10006 0.93134,-0.592666 v -0.508 l 2.75166,-0.04653 2.75167,-0.04653 v 0.596861 0.596861 h 2.95359 2.9536 l 0.0521,0.719667 0.0521,0.719667 1.60867,0.08467 1.60866,0.08467 0.0521,0.719667 0.0521,0.719667 h 1.09493 1.09493 l -0.0463,2.921 -0.0463,2.921 -1.04899,0.05017 -1.04897,0.05017 -0.0517,0.711829 -0.0517,0.71183 -0.97366,0.05078 -0.97367,0.05079 v 1.261548 1.26155 h -0.67733 -0.67734 v 1.515151 1.515151 l -0.889,0.05118 c -0.86693,0.04991 -0.89032,0.06484 -0.94206,0.601516 l -0.0531,0.550334 h -1.08994 -1.08994 v 0.762 0.762 h -1.60866 -1.60867 v -0.765302 -0.765302 l -3.683,0.04563 -3.683,0.04564 -0.0537,0.677333 c -0.0748,0.944159 -0.2348,1.019405 -0.62576,0.29425 z m 120.4961,0.03031 c 0.008,-0.197265 0.0483,-0.237388 0.10231,-0.102306 0.0489,0.122237 0.0429,0.268287 -0.0134,0.324556 -0.0563,0.05627 -0.0963,-0.04375 -0.0889,-0.22225 z m -204.52246,-9.839921 c 0.16476,-0.04293 0.39336,-0.04011 0.508,0.0063 0.11464,0.04639 -0.0202,0.08151 -0.29956,0.07806 -0.2794,-0.0035 -0.3732,-0.0414 -0.20844,-0.08433 z"
           id="path853"
           sodipodi:nodetypes="ccccccssssccccccccccccccccscccccccccssscccccccccccccccccccccccccccccccccccccscccccccccccccccscscccsscccccccccccccccccccccccccccssccccccccccccccccscsssscccccccccccccccccsssssccccccccccccccccccccccccccccccccccccccccccsssssccccccccccccccccccsscccccsccccccssccccsscssscccccsscccccccsscsscccsscsssccccccccccccccsssscccccccccccccccccccccccccccccccccccccccccccccccccccccssscsscsscccccccccccccccccccccccccccccccccccccccccccccccccccccccccccccccccccccccccccccccccccccccccccccccccccccccccccccccccccssscccccsscsscccccssscssscsssscssccccccccccccccccccccssscccccccccccccccccccccccccccccccccccccccccccccccsscccssscccccsscccsscccccccccsscccssssscccccccccccccccccsscccccccccccccccccccccccccccccssscccccccccccccccccccccccccccccccccccsssccccccccssscccccccccccccccccccccsscccccccccsscccssscccccssscsscccccccccsscccsssccccccccccccccccccsscccccccccccccccccccccccccccccsscccccccccccsccssssssssss" />
        <path
           style="fill:#fb0606;stroke-width:0.169333"
           d="m -273.43706,-2.6027761 c -1.59956,-0.6359585 -2.14453,-2.6027872 -1.07376,-3.8753205 1.17178,-1.3925838 3.09163,-1.3204546 4.07605,0.1531383 1.31979,1.9756019 -0.7964,4.5992069 -3.00229,3.7221822 z m 161.71678,-0.5298898 c -0.9153,-0.4676953 -1.35452,-1.0451711 -1.47432,-1.9384146 -0.19086,-1.4228775 0.84584,-2.6025856 2.38668,-2.7159221 1.54649,-0.1137531 2.62389,0.7716215 2.76359,2.2710564 0.0613,0.6575924 -0.002,0.9325525 -0.32136,1.4096136 -0.41234,0.6148697 -1.64512,1.3546667 -2.25738,1.3546667 -0.19336,0 -0.6871,-0.17145 -1.09721,-0.381 z m -87.37945,-0.7687869 c -1.81541,-0.9923221 -1.8084,-3.4545643 0.0125,-4.4068137 1.76264,-0.9217711 3.79747,0.2409562 3.79747,2.1699339 0,1.871704 -2.15907,3.1393063 -3.81,2.2368798 z m 75.33604,-2.282588 c -1.46211,-0.9767468 -1.54637,-3.0730597 -0.17008,-4.2311272 2.088,-1.756943 5.01675,0.803067 3.71011,3.2429978 -0.71083,1.3273583 -2.34813,1.7843754 -3.54003,0.9881294 z m -87.2833,-3.8420002 c -0.55728,-0.225693 -1.40388,-1.303777 -1.52316,-1.939634 -0.31225,-1.664449 1.44282,-3.313442 3.08731,-2.900702 1.63623,0.410667 2.45328,2.455695 1.53207,3.83467 -0.65005,0.97305 -2.05222,1.4284824 -3.09622,1.005666 z m -49.78313,-1.430476 c -1.64202,-0.715217 -2.0573,-2.834098 -0.79203,-4.041113 0.90292,-0.861338 1.99063,-1.021068 3.09981,-0.455205 0.87575,0.446772 1.33983,1.212418 1.34065,2.211795 0.002,1.841232 -1.91338,3.040263 -3.64843,2.284523 z m 125.27118,-1.284901 c -1.6955,-1.03376 -1.62545,-3.498041 0.1259,-4.428709 1.61322,-0.857267 3.55952,0.351187 3.55801,2.209169 -0.002,1.957728 -2.06969,3.203746 -3.68391,2.21954 z m -49.88553,-0.830291 c -0.76637,-0.505262 -1.12236,-1.182101 -1.12236,-2.133957 0,-1.489896 0.9632,-2.453102 2.4531,-2.453102 1.47391,0 2.45221,0.964335 2.45421,2.419178 0.002,1.568546 -0.90537,2.488392 -2.45421,2.487508 -0.54461,-3.39e-4 -1.01937,-0.114341 -1.33074,-0.319627 z m 75.58076,-2.024163 c -1.75135,-0.930668 -1.8214,-3.394949 -0.1259,-4.428709 1.0046,-0.612516 2.26817,-0.381101 3.1659,0.579811 0.61641,0.659791 0.69441,2.172554 0.15262,2.959898 -0.46907,0.68167 -1.37403,1.202539 -2.08931,1.202539 -0.28232,0 -0.7788,-0.141093 -1.10331,-0.313539 z m -232.72209,-4.410504 c -0.76637,-0.505262 -1.12236,-1.1821 -1.12236,-2.133957 0,-1.489896 0.96321,-2.453102 2.4531,-2.453102 1.4899,0 2.45311,0.963206 2.45311,2.453102 0,1.489896 -0.96321,2.453102 -2.45311,2.453102 -0.54528,0 -1.01897,-0.113603 -1.33074,-0.319145 z m 74.40145,-2.853886 c -1.27263,-0.639391 -1.75614,-2.321299 -1.01299,-3.523735 0.50043,-0.809714 1.65749,-1.327934 2.63699,-1.18105 0.95894,0.143803 2.0222,1.123363 2.18995,2.017565 0.20028,1.067575 -0.44368,2.218973 -1.56253,2.793792 -0.54476,0.279877 -1.57976,0.230884 -2.25142,-0.106572 z m 75.22141,-2.571097 c -1.69547,-1.064639 -1.62618,-3.507718 0.1259,-4.438768 0.72713,-0.386397 1.38205,-0.398042 2.14066,-0.03806 1.63518,0.775947 1.9718,2.805713 0.67962,4.09791 -0.4983,0.49829 -0.73481,0.602637 -1.4932,0.658767 -0.69652,0.05155 -1.02641,-0.01199 -1.45298,-0.279849 z m 75.48524,-2.508903 c -1.27263,-0.639391 -1.75614,-2.3213 -1.01299,-3.523736 0.50043,-0.809713 1.65749,-1.327934 2.637,-1.181049 0.95893,0.143803 2.02219,1.123363 2.18995,2.017565 0.20027,1.067575 -0.44369,2.218972 -1.56254,2.793791 -0.54474,0.279878 -1.57974,0.230885 -2.25142,-0.106571 z m -290.91296,-12.253136 c -1.85381,-0.73985 -2.57452,-2.891831 -1.50145,-4.483198 0.2319,-0.343907 0.76584,-0.769466 1.28975,-1.027959 0.7363,-0.363285 1.03404,-0.42191 1.68771,-0.332314 2.10817,0.288956 3.35457,2.494575 2.43162,4.302948 -0.17636,0.34554 -0.4649,0.758698 -0.6412,0.91813 -0.78836,0.712922 -2.3121,1.00326 -3.26643,0.622393 z"
           id="path851" />
        <path
           style="fill:#0d0d0d;stroke-width:0.169333"
           d="m -374.82539,-17.087812 c -0.11641,-0.04697 -0.21166,-0.256747 -0.21166,-0.466156 0,-0.278503 0.21599,-0.50097 0.80433,-0.828437 l 0.80433,-0.44769 -5.79966,-0.0041 -5.79967,-0.0041 v -0.508 -0.508 l 5.715,-0.0066 5.715,-0.0066 -0.72851,-0.439141 c -0.54234,-0.326925 -0.71543,-0.53033 -0.67733,-0.795997 0.0281,-0.196269 0.17563,-0.380556 0.32774,-0.409526 0.23026,-0.04385 1.95145,0.867775 3.68203,1.950177 0.39625,0.24784 0.3715,0.270198 -1.57049,1.419088 -1.08519,0.642003 -1.99026,1.161264 -2.01126,1.153912 -0.021,-0.0073 -0.13343,-0.0518 -0.24985,-0.09878 z m 76.2,-2.032 c -0.11642,-0.04697 -0.21167,-0.256747 -0.21167,-0.466156 0,-0.278503 0.21599,-0.50097 0.80434,-0.828437 l 0.80433,-0.44769 -5.79967,-0.0041 -5.79966,-0.0041 v -0.508 -0.508 l 5.715,-0.0066 5.715,-0.0066 -0.72851,-0.439141 c -0.54235,-0.326925 -0.71543,-0.53033 -0.67733,-0.795997 0.0281,-0.196269 0.17562,-0.380556 0.32773,-0.409526 0.23026,-0.04385 1.95146,0.867775 3.68203,1.950177 0.39625,0.24784 0.37151,0.270198 -1.57049,1.419088 -1.08519,0.642003 -1.99026,1.161264 -2.01126,1.153912 -0.021,-0.0073 -0.13342,-0.0518 -0.24984,-0.09878 z m 71.96666,-1.185334 c -0.11642,-0.04697 -0.21167,-0.256746 -0.21167,-0.466156 0,-0.278502 0.21601,-0.500969 0.80434,-0.828436 l 0.80433,-0.44769 -5.79967,-0.0041 -5.79966,-0.0041 v -0.508 -0.508 l 5.715,-0.0066 5.715,-0.0066 -0.72851,-0.439141 c -0.54234,-0.326925 -0.71543,-0.53033 -0.67733,-0.795997 0.0281,-0.196269 0.17563,-0.380556 0.32773,-0.409526 0.23025,-0.04385 1.95146,0.867774 3.68203,1.950177 0.39626,0.247839 0.37152,0.270198 -1.57048,1.419087 -1.08519,0.642004 -1.99026,1.161265 -2.01126,1.153912 -0.021,-0.0073 -0.13343,-0.0518 -0.24985,-0.09878 z m 75.86133,-2.032 c -0.11642,-0.04697 -0.21167,-0.256746 -0.21167,-0.466156 0,-0.278502 0.216,-0.500969 0.80433,-0.828436 l 0.80434,-0.44769 -5.79967,-0.0041 -5.79966,-0.0041 v -0.508 -0.508 l 5.715,-0.0066 5.71499,-0.0066 -0.7285,-0.439141 c -0.54234,-0.326925 -0.71543,-0.53033 -0.67733,-0.795997 0.0281,-0.196269 0.17563,-0.380556 0.32772,-0.409526 0.23026,-0.04385 1.95147,0.867774 3.68204,1.950177 0.39625,0.247839 0.37152,0.270198 -1.57048,1.419087 -1.08519,0.642004 -1.99026,1.161265 -2.01126,1.153912 -0.021,-0.0073 -0.13344,-0.0518 -0.24985,-0.09878 z"
           id="path849"
           sodipodi:nodetypes="ssscccccccssssssssssscccccccssssssssssscccccccscssscsscsscccccccscsssccc" />
      </g>
      <text
         xml:space="preserve"
         style="font-style:normal;font-weight:normal;font-size:10.5833px;line-height:1.25;font-family:sans-serif;fill:#000000;fill-opacity:1;stroke:none;stroke-width:0.264583"
         x="-400.74921"
         y="21.308407"
         id="text863"
         inkscape:export-xdpi="1000"
         inkscape:export-ydpi="1000"><tspan
           sodipodi:role="line"
           id="tspan861"
           x="-400.74921"
           y="21.308407"
           style="font-style:normal;font-variant:normal;font-weight:normal;font-stretch:normal;font-family:Arial;-inkscape-font-specification:Arial;stroke-width:0.264583">Saddle Point</tspan></text>
      <text
         xml:space="preserve"
         id="text838"
         style="fill:black;fill-opacity:1;line-height:1.25;stroke:none;font-family:sans-serif;font-style:normal;font-weight:normal;font-size:10.58333333px;white-space:pre;shape-inside:url(#rect840);" />
    </g>
  </g>
</svg>
